<?xml version="1.0" encoding="iso-8859-1"?>
<svg version="1.1" id="Layer_1" xmlns="http://www.w3.org/2000/svg" xmlns:xlink="http://www.w3.org/1999/xlink" x="0px" y="0px"
	 viewBox="0 0 512 512" style="enable-background:new 0 0 512 512;" xml:space="preserve">
<path style="fill:#E9E4D8;" d="M512,256c0,141.388-114.618,255.994-255.994,255.994c-106.501,0-197.814-65.02-236.386-157.543
	c-3.087-7.395-5.84-14.967-8.216-22.706c-0.877-2.82-1.71-5.651-2.476-8.516C3.109,301.8,0,279.261,0,256
	C0,114.612,114.618,0.006,256.006,0.006c66.663,0,127.387,25.493,172.943,67.252c3.264,2.987,6.451,6.062,9.549,9.227
	c1.455,1.466,2.887,2.953,4.297,4.463c6.751,7.195,13.091,14.789,18.975,22.739C493.336,146.245,512,198.941,512,256z"/>
<path style="fill:#42577F;" d="M260.647,256.5L129.685,389.082h-0.011L19.619,354.452c-3.087-7.395-5.84-14.967-8.216-22.706
	L260.647,256.5z"/>
<polygon style="fill:#187C8C;" points="228.555,420.196 179.605,480.158 187.577,407.301 "/>
<polygon style="fill:#2F4260;" points="279.712,289.489 187.577,407.301 179.605,480.158 128.456,390.319 129.672,389.081 
	129.683,389.085 260.647,256.499 279.202,289.094 "/>
<polygon style="fill:#187C8C;" points="475.85,38.675 298.436,265.541 279.712,289.489 279.202,289.094 260.647,256.499 "/>
<polygon style="fill:#42577F;" points="298.436,265.541 382.574,468.667 228.555,420.196 187.577,407.301 279.712,289.489 "/>
<g>
	<polygon style="fill:#32AACE;" points="475.883,38.647 382.574,468.667 298.436,265.541 475.85,38.675 475.854,38.663 	"/>
	<path style="fill:#32AACE;" d="M475.848,38.678l-37.351,37.806L260.647,256.5L11.403,331.746c-0.877-2.82-1.71-5.651-2.476-8.516
		L428.948,67.257L475.848,38.678z"/>
</g>
<g>
</g>
<g>
</g>
<g>
</g>
<g>
</g>
<g>
</g>
<g>
</g>
<g>
</g>
<g>
</g>
<g>
</g>
<g>
</g>
<g>
</g>
<g>
</g>
<g>
</g>
<g>
</g>
<g>
</g>
</svg>
